<svg width="476" height="145" viewBox="0 0 476 145" fill="none" xmlns="http://www.w3.org/2000/svg">
<path d="M98.9626 28.6811C102.401 27.5003 106.139 29.3083 107.31 32.7193L117.631 62.7768C117.943 63.6864 118.94 64.1686 119.857 63.8537C120.774 63.5388 121.264 62.5462 120.952 61.6365L112.893 38.167C111.878 35.2107 113.471 31.9847 116.451 30.9613C119.431 29.9379 122.67 31.5048 123.685 34.4611L135.137 67.8126C135.606 69.177 137.101 69.9002 138.476 69.4278C138.609 69.3823 138.736 69.3268 138.856 69.2634C138.815 67.9819 138.86 66.7433 139.006 65.5637C140.481 53.642 149.911 50.9253 154.442 51.0572L150.505 63.9165C149.068 77.2984 152.921 93.9267 150.9 102.906C150.885 102.882 150.871 102.857 150.856 102.833C149.092 112.281 142.391 120.557 132.594 123.921L125.952 126.202C111.509 131.161 95.8132 123.568 90.8939 109.242L75.2003 63.5376C74.2633 60.8088 75.7338 57.8309 78.4849 56.8863C81.2359 55.9416 84.2256 57.388 85.1627 60.1168L90.5352 75.7632C90.8476 76.6728 91.8442 77.1549 92.7612 76.84C93.6782 76.5252 94.1684 75.5325 93.856 74.6229L84.3833 47.0359C83.5244 44.5344 84.8724 41.8047 87.3942 40.9388C89.916 40.0728 92.6566 41.3987 93.5155 43.9001L101.857 68.1932C102.169 69.1028 103.166 69.5849 104.083 69.27C105 68.9551 105.49 67.9625 105.178 67.0529L94.8569 36.9953C93.6856 33.5843 95.5238 29.8619 98.9626 28.6811ZM114.1 74.1158C105.847 76.9497 101.688 86.6209 104.812 95.717C107.935 104.813 117.157 109.89 125.411 107.056C133.664 104.222 137.822 94.5505 134.699 85.4544C131.575 76.3584 122.353 71.2819 114.1 74.1158Z" fill="#F6EA08"/>
<path d="M189.06 50.5455V64.1818H149.642V50.5455H189.06ZM158.591 34.8636H176.744V95.8864C176.744 97.5625 177 98.8693 177.511 99.8068C178.023 100.716 178.733 101.355 179.642 101.724C180.58 102.094 181.659 102.278 182.881 102.278C183.733 102.278 184.585 102.207 185.438 102.065C186.29 101.895 186.943 101.767 187.398 101.682L190.253 115.19C189.344 115.474 188.065 115.801 186.418 116.17C184.77 116.568 182.767 116.81 180.409 116.895C176.034 117.065 172.199 116.483 168.903 115.148C165.636 113.812 163.094 111.739 161.276 108.926C159.457 106.114 158.563 102.562 158.591 98.2727V34.8636ZM202.632 116V28.7273H237.064C243.683 28.7273 249.322 29.9915 253.982 32.5199C258.641 35.0199 262.192 38.5 264.635 42.9602C267.107 47.392 268.342 52.5057 268.342 58.3011C268.342 64.0966 267.092 69.2102 264.592 73.642C262.092 78.0739 258.47 81.5256 253.726 83.9972C249.01 86.4687 243.3 87.7045 236.595 87.7045H214.649V72.9176H233.612C237.163 72.9176 240.089 72.3068 242.391 71.0852C244.72 69.8352 246.453 68.1165 247.589 65.929C248.754 63.7131 249.337 61.1705 249.337 58.3011C249.337 55.4034 248.754 52.875 247.589 50.7159C246.453 48.5284 244.72 46.8381 242.391 45.6449C240.061 44.4233 237.107 43.8125 233.527 43.8125H221.084V116H202.632ZM296.893 117.236C292.717 117.236 288.996 116.511 285.729 115.062C282.462 113.585 279.876 111.412 277.973 108.543C276.098 105.645 275.161 102.037 275.161 97.7188C275.161 94.0824 275.828 91.0284 277.163 88.5568C278.499 86.0852 280.317 84.0966 282.618 82.5909C284.919 81.0852 287.533 79.9489 290.459 79.1818C293.413 78.4148 296.51 77.875 299.749 77.5625C303.555 77.1648 306.624 76.7955 308.953 76.4545C311.283 76.0852 312.973 75.5455 314.024 74.8352C315.075 74.125 315.601 73.0739 315.601 71.6818V71.4261C315.601 68.7273 314.749 66.6392 313.044 65.1619C311.368 63.6847 308.982 62.946 305.885 62.946C302.618 62.946 300.018 63.6705 298.087 65.1193C296.155 66.5398 294.876 68.3295 294.251 70.4886L277.462 69.125C278.314 65.1477 279.99 61.7102 282.49 58.8125C284.99 55.8864 288.214 53.642 292.163 52.0795C296.141 50.4886 300.743 49.6932 305.97 49.6932C309.607 49.6932 313.087 50.1193 316.411 50.9716C319.763 51.8239 322.732 53.1449 325.317 54.9347C327.93 56.7244 329.99 59.0256 331.496 61.8381C333.001 64.6222 333.754 67.9602 333.754 71.8523V116H316.538V106.923H316.027C314.976 108.969 313.57 110.773 311.808 112.335C310.047 113.869 307.93 115.077 305.459 115.957C302.987 116.81 300.132 117.236 296.893 117.236ZM302.092 104.707C304.763 104.707 307.121 104.182 309.166 103.131C311.212 102.051 312.817 100.602 313.982 98.7841C315.146 96.9659 315.729 94.9062 315.729 92.6051V85.6591C315.161 86.0284 314.379 86.3693 313.385 86.6818C312.419 86.9659 311.325 87.2358 310.104 87.4915C308.882 87.7187 307.661 87.9318 306.439 88.1307C305.217 88.3011 304.109 88.4574 303.115 88.5994C300.984 88.9119 299.124 89.4091 297.533 90.0909C295.942 90.7727 294.706 91.696 293.825 92.8608C292.945 93.9972 292.504 95.4176 292.504 97.1222C292.504 99.5938 293.399 101.483 295.189 102.79C297.007 104.068 299.308 104.707 302.092 104.707ZM402.298 69.2102L385.679 70.233C385.395 68.8125 384.784 67.5341 383.847 66.3977C382.909 65.233 381.673 64.3097 380.139 63.6278C378.634 62.9176 376.83 62.5625 374.727 62.5625C371.915 62.5625 369.543 63.1591 367.611 64.3523C365.679 65.517 364.713 67.0795 364.713 69.0398C364.713 70.6023 365.338 71.9233 366.588 73.0028C367.838 74.0824 369.983 74.9489 373.023 75.6023L384.869 77.9886C391.233 79.2955 395.977 81.3977 399.102 84.2955C402.227 87.1932 403.79 91 403.79 95.7159C403.79 100.006 402.526 103.77 399.997 107.009C397.497 110.247 394.06 112.776 389.685 114.594C385.338 116.384 380.324 117.278 374.642 117.278C365.977 117.278 359.074 115.474 353.932 111.866C348.818 108.23 345.821 103.287 344.94 97.0369L362.795 96.0994C363.335 98.7415 364.642 100.759 366.716 102.151C368.79 103.514 371.446 104.196 374.685 104.196C377.866 104.196 380.423 103.585 382.355 102.364C384.315 101.114 385.31 99.5085 385.338 97.5483C385.31 95.9006 384.614 94.5511 383.25 93.5C381.886 92.4205 379.784 91.5966 376.943 91.0284L365.608 88.7699C359.216 87.4915 354.457 85.2756 351.332 82.1222C348.236 78.9687 346.688 74.9489 346.688 70.0625C346.688 65.858 347.824 62.2358 350.097 59.196C352.398 56.1562 355.622 53.8125 359.77 52.1648C363.946 50.517 368.832 49.6932 374.429 49.6932C382.696 49.6932 389.202 51.4403 393.946 54.9347C398.719 58.429 401.503 63.1875 402.298 69.2102ZM469.681 69.2102L453.062 70.233C452.778 68.8125 452.167 67.5341 451.229 66.3977C450.292 65.233 449.056 64.3097 447.522 63.6278C446.016 62.9176 444.212 62.5625 442.11 62.5625C439.298 62.5625 436.925 63.1591 434.994 64.3523C433.062 65.517 432.096 67.0795 432.096 69.0398C432.096 70.6023 432.721 71.9233 433.971 73.0028C435.221 74.0824 437.366 74.9489 440.406 75.6023L452.252 77.9886C458.616 79.2955 463.36 81.3977 466.485 84.2955C469.61 87.1932 471.173 91 471.173 95.7159C471.173 100.006 469.908 103.77 467.38 107.009C464.88 110.247 461.442 112.776 457.067 114.594C452.721 116.384 447.707 117.278 442.025 117.278C433.36 117.278 426.457 115.474 421.315 111.866C416.201 108.23 413.204 103.287 412.323 97.0369L430.178 96.0994C430.718 98.7415 432.025 100.759 434.099 102.151C436.173 103.514 438.829 104.196 442.067 104.196C445.249 104.196 447.806 103.585 449.738 102.364C451.698 101.114 452.692 99.5085 452.721 97.5483C452.692 95.9006 451.996 94.5511 450.633 93.5C449.269 92.4205 447.167 91.5966 444.326 91.0284L432.991 88.7699C426.599 87.4915 421.84 85.2756 418.715 82.1222C415.619 78.9687 414.07 74.9489 414.07 70.0625C414.07 65.858 415.207 62.2358 417.479 59.196C419.781 56.1562 423.005 53.8125 427.153 52.1648C431.329 50.517 436.215 49.6932 441.812 49.6932C450.079 49.6932 456.585 51.4403 461.329 54.9347C466.102 58.429 468.886 63.1875 469.681 69.2102Z" fill="white"/>
<path d="M80.5824 28.7273V116H64.6449L26.6761 61.071H26.0369V116H7.58523V28.7273H23.7784L61.4489 83.6136H62.2159V28.7273H80.5824Z" fill="white"/>
</svg>
